:SAMPLES-PER-SECOND 30
:FULLY-SPECIFIED
:DEGREES
512
root  5.45202 28.2836 33.8261 -88.6641 10.4337 106.44
Spine  -6.56718 -2.42622 5.27364
Spine1  -10.6659 24.5354 -21.379
Neck  3.97569e-016 0 -2.38542e-015
Head  34.5816 7.61083 7.84712
R_Clavicle  0.296464 7.99994 1.67282
R_UpperArm  25.032 23.6416 -33.8757
R_Forearm  19.7982 8.95303 -7.54752
R_Hand  -2.16244 7.05413 -28.3435
L_Clavicle  0.568754 -0.879717 -3.73421
L_UpperArm  -42.7724 -28.6514 -9.37153
L_Forearm  -22.5636 -8.14473 -9.52637
L_Hand  1.29762 9.54774 10.0287
L_Thigh  -10.6472 -7.88567 -31.2293
L_Calf  2.95763 -3.97897 30.0818
L_Foot  11.6381 24.8519 13.1508
L_Toe0  9.54398 -3.63535 12.2019
R_Thigh  -8.40936 5.28643 29.4677
R_Calf  1.99052 7.01845 22.3893
R_Foot  -2.39052 -11.2003 -4.18162
R_Toe0  -1.79483 -0.2729 -17.3271
513
root  6.50167 26.3009 33.002 -84.9235 8.48876 105.562
Spine  -9.39755 -7.05021 10.3632
Spine1  -14.6136 33.1523 -23.5602
Neck  3.97569e-016 0 -2.38542e-015
Head  40.2971 8.87091 4.56728
R_Clavicle  0.321274 6.68793 1.74491
R_UpperArm  24.1616 27.4637 -34.0512
R_Forearm  21.9517 6.29407 -5.28471
R_Hand  -2.24297 7.55754 -28.7398
L_Clavicle  0.781974 -6.61626 -3.08432
L_UpperArm  -44.1936 -32.4447 -14.0341
L_Forearm  -20.3216 -2.8855 -3.34949
L_Hand  1.1955 9.41358 9.34154
L_Thigh  -5.11303 -7.15007 -37.5517
L_Calf  -3.41207 -3.90078 29.6301
L_Foot  21.1182 25.3502 33.0807
L_Toe0  0.0304374 0.0938169 3.75965
R_Thigh  -11.2555 0.47342 33.0002
R_Calf  -4.91258 5.61317 17.7438
R_Foot  1.25967 -0.360722 -11.8363
R_Toe0  -1.72849 -0.271721 -17.2894
514
root  7.0687 24.9029 31.4813 -83.3419 8.62279 105.46
Spine  -10.0796 -7.89934 9.55803
Spine1  -15.311 38.1386 -21.1112
Neck  3.97569e-016 0 -2.38542e-015
Head  44.8445 7.95232 1.50425
R_Clavicle  0.253737 4.43614 1.43106
R_UpperArm  23.8214 27.3698 -29.3532
R_Forearm  22.0685 2.92758 -2.46231
R_Hand  -1.78768 6.97562 -25.3163
L_Clavicle  0.664632 -11.2522 -1.494
L_UpperArm  -41.1822 -31.9679 -18.1238
L_Forearm  -13.9283 4.2336 4.89397
L_Hand  0.623592 8.72044 5.2544
L_Thigh  -1.18866 -6.24006 -41.1144
L_Calf  -5.3991 -3.78996 28.6493
L_Foot  20.0229 19.4325 37.0258
L_Toe0  2.33725 -0.414109 0.384192
R_Thigh  -10.3677 -3.09167 35.1993
R_Calf  -8.09118 3.26811 10.2215
R_Foot  4.20157 14.9249 -11.4274
R_Toe0  -1.54688 -0.268495 -17.1861
515
root  7.23584 24.0705 29.4655 -82.7296 9.79714 106.543
Spine  -9.45401 -3.67027 5.5552
Spine1  -14.0653 38.1698 -16.5028
Neck  3.97569e-016 0 -2.38542e-015
Head  48.6908 5.78861 -0.85381
R_Clavicle  0.0933032 2.0399 0.612457
R_UpperArm  24.8785 24.0747 -19.7079
R_Forearm  24.1474 -1.48114 1.20411
R_Hand  -1.41397 6.7372 -22.1872
L_Clavicle  0.371592 -12.6317 -0.104801
L_UpperArm  -32.3423 -28.6617 -20.6666
L_Forearm  -3.2469 12.6241 15.0578
L_Hand  0.0602538 6.78222 0.769237
L_Thigh  -1.57026 -5.06226 -40.632
L_Calf  -4.90188 -3.06127 22.6544
L_Foot  13.9938 15.6502 27.971
L_Toe0  6.87014 -2.33642 11.9091
R_Thigh  -6.53243 -4.85502 36.0981
R_Calf  -7.99434 0.661729 2.14475
R_Foot  6.73518 24.3022 -4.44643
R_Toe0  -1.77502 -0.272549 -17.3159
516
root  7.10559 23.7744 27.2979 -81.7334 10.1477 106.974
Spine  -8.99202 2.33478 3.01953
Spine1  -13.3072 35.3049 -13.0997
Neck  3.97569e-016 0 -2.38542e-015
Head  50.7498 4.30761 -2.07654
R_Clavicle  -0.138908 -0.401366 -0.755506
R_UpperArm  24.225 20.8084 -7.06193
R_Forearm  30.8194 -8.79823 7.54517
R_Hand  -1.33473 8.62652 -21.4684
L_Clavicle  0.446052 -11.4896 -0.568511
L_UpperArm  -18.9456 -24.3091 -19.8191
L_Forearm  7.20964 21.9717 27.3381
L_Hand  -0.0681224 4.1419 -0.708717
L_Thigh  -4.45521 -4.09746 -35.5935
L_Calf  -7.61491 -1.09768 7.60757
L_Foot  9.45471 17.9577 13.9302
L_Toe0  4.78935 -2.68087 14.9942
R_Thigh  -3.34059 -6.38796 34.5766
R_Calf  -8.26582 -1.22224 -3.64319
R_Foot  8.41105 26.6381 2.57132
R_Toe0  -1.79116 -0.272834 -17.325
517
root  6.86373 23.6933 25.3176 -80.2634 9.35075 106.139
Spine  -8.22511 6.46969 2.76181
Spine1  -12.3106 32.8004 -10.453
Neck  3.97569e-016 0 -2.38542e-015
Head  50.4395 3.76377 -3.17555
R_Clavicle  -0.340574 -2.0053 -2.09863
R_UpperArm  21.8698 19.3891 6.38248
R_Forearm  34.0986 -20.191 16.2149
R_Hand  -1.02399 10.3997 -19.3456
L_Clavicle  0.728983 -8.16185 -2.41885
L_UpperArm  -10.957 -20.1342 -15.2993
L_Forearm  16.1738 33.1843 39.5233
L_Hand  0.0189582 2.38847 0.364586
L_Thigh  -5.48717 -3.78681 -27.1549
L_Calf  -12.586 1.84495 -14.0791
L_Foot  6.30303 19.066 4.50651
L_Toe0  0.423365 0.228496 -5.74188
R_Thigh  -3.32126 -7.76189 30.6761
R_Calf  -8.16445 -2.42847 -7.35942
R_Foot  9.92673 27.6595 9.5552
R_Toe0  -1.78853 -0.272788 -17.3235
518
root  6.52644 23.6386 23.4282 -79.4046 8.61231 104.425
Spine  -6.68157 10.1743 2.61671
Spine1  -10.1257 27.9208 -7.36371
Neck  3.97569e-016 0 -2.38542e-015
Head  48.3064 3.59411 -5.2543
R_Clavicle  -0.443343 -3.22867 -2.9651
R_UpperArm  27.8954 18.4255 19.5124
R_Forearm  18.6498 -35.6744 22.8138
R_Hand  -0.1822 9.00739 -13.2832
L_Clavicle  0.693183 -3.55855 -3.49273
L_UpperArm  -23.1151 -16.1732 -6.26797
L_Forearm  31.619 44.5064 49.3663
L_Hand  0.0693129 0.992335 1.2788
L_Thigh  -6.0682 -4.42945 -17.1438
L_Calf  -14.1702 4.60623 -36.3654
L_Foot  5.39224 13.2129 6.86807
L_Toe0  0.481119 0.0373874 -6.31014
R_Thigh  -5.59279 -9.03745 25.777
R_Calf  -7.14864 -3.06261 -9.29802
R_Foot  12.1263 29.9336 15.9004
R_Toe0  -1.78853 -0.272788 -17.3235
519
root  5.91534 23.81 21.3542 -79.7265 8.36956 102.579
Spine  -4.17006 15.3632 2.57876
Spine1  -7.62312 19.049 -4.93184
Neck  3.97569e-016 0 -2.38542e-015
Head  45.1271 3.38225 -8.28846
R_Clavicle  -0.329387 -6.07712 -3.05614
R_UpperArm  37.2941 16.3966 33.3641
R_Forearm  -9.44542 -47.3251 29.4945
R_Hand  -0.055044 5.24847 -9.38608
L_Clavicle  0.37902 1.45398 -3.26181
L_UpperArm  -26.0997 -13.0371 8.67164
L_Forearm  29.6851 44.8529 54.8493
L_Hand  0.00437525 -0.598845 0.115944
L_Thigh  -8.90646 -4.61871 -5.67691
L_Calf  -12.1595 6.27776 -53.5998
L_Foot  6.6967 8.46737 16.0282
L_Toe0  0.505156 0.0344454 -6.13598
R_Thigh  -7.19085 -10.7724 20.1948
R_Calf  -6.43959 -2.81513 -8.4761
R_Foot  14.1434 31.918 20.4397
R_Toe0  -1.78853 -0.272788 -17.3235
520
root  5.00062 24.1758 19.0208 -80.0262 7.80322 101.164
Spine  -1.26052 20.2076 3.8234
Spine1  -5.4888 9.82939 -3.67426
Neck  3.97569e-016 0 -2.38542e-015
Head  41.4402 4.1911 -11.9432
R_Clavicle  -0.0188305 -10.8031 -2.11828
R_UpperArm  35.6264 12.0538 48.8696
R_Forearm  -16.8328 -49.193 31.3432
R_Hand  0.0117485 5.45294 -9.03697
L_Clavicle  0.0501153 5.85254 -2.33436
L_UpperArm  -27.8815 -10.9066 27.7252
L_Forearm  23.9502 44.0796 54.4322
L_Hand  -0.0739892 -1.61741 -2.30628
L_Thigh  -13.2784 -1.86763 7.63759
L_Calf  -11.7354 6.97682 -63.4334
L_Foot  7.69476 5.6923 23.4083
L_Toe0  0.505156 0.0344437 -6.13548
R_Thigh  -6.85509 -13.038 12.897
R_Calf  -6.50104 -1.73675 -5.09438
R_Foot  15.3451 32.6009 23.7675
R_Toe0  -1.7959 -0.274885 -17.3975
521
root  3.7964 24.4616 16.3034 -79.2948 6.6344 99.3035
Spine  1.01561 21.1448 4.94925
Spine1  -3.68089 3.73148 -3.59475
Neck  3.97569e-016 0 -2.38542e-015
Head  37.778 6.17854 -15.5061
R_Clavicle  0.262289 -15.2884 -0.342958
R_UpperArm  33.9094 4.00494 64.9895
R_Forearm  -9.41088 -46.1664 27.7971
R_Hand  0.494502 8.5922 -7.92998
L_Clavicle  -0.188426 9.03247 -1.00563
L_UpperArm  -28.5381 -7.58009 47.7608
L_Forearm  16.2543 43.1481 53.6793
L_Hand  -0.130169 -1.37185 -3.62698
L_Thigh  -17.2272 3.06309 21.6949
L_Calf  -15.0157 7.101 -65.5873
L_Foot  7.81219 4.15902 26.3589
L_Toe0  0.505157 0.0344433 -6.13492
R_Thigh  -5.87319 -16.5538 2.65363
R_Calf  -6.5515 0.076293 0.461537
R_Foot  16.7654 33.6701 26.662
R_Toe0  -1.74869 -0.258523 -16.9265
522
root  2.21095 24.6887 13.1798 -77.2961 5.78048 96.8827
Spine  2.40488 19.053 3.18639
Spine1  -2.01352 -0.00546701 -4.52833
Neck  3.97569e-016 0 -2.38542e-015
Head  34.3308 7.17877 -16.8593
R_Clavicle  0.396985 -17.6815 1.57526
R_UpperArm  31.0113 -6.85047 80.1778
R_Forearm  -0.943067 -42.631 25.2781
R_Hand  0.682368 9.01877 -6.94196
L_Clavicle  -0.319995 10.8293 0.395359
L_UpperArm  -28.76 -1.45577 66.9183
L_Forearm  3.83294 41.0789 54.3872
L_Hand  -0.20602 0.136683 -4.10921
L_Thigh  -19.7516 7.61953 35.0049
L_Calf  -14.9705 6.70463 -59.3879
L_Foot  8.43914 5.01882 27.0884
L_Toe0  0.505157 0.0344436 -6.1343
R_Thigh  -3.92687 -21.5433 -9.56094
R_Calf  -5.82194 2.71727 8.59273
R_Foot  17.8451 36.8431 23.7709
R_Toe0  -1.47979 -0.0288773 -12.1323
